<svg xmlns="http://www.w3.org/2000/svg" data-name="Layer 1" id="Layer_1" viewBox="0 0 180 29">
  <defs>
    <style>.cls-1{fill:#0d5ef8;}.cls-2{fill:#ff0366;opacity:0.94;}.cls-3{fill:#fff;}</style>
  </defs>
  <title>Untitled-1</title>
  <path class="cls-1" d="M45.93,1.53q-.87.15-3.18.48l-3.59.51c-1.26.16-2.42.3-3.51.42s-2.17.19-3.26.25q.7,4,1.17,10.68T34,25.67a22.58,22.58,0,0,0,2.73-.14,19.27,19.27,0,0,0,2.47-.45c.09-1.29.16-2.69.22-4.22s.1-3.16.14-4.9c.75-.09,1.54-.16,2.37-.2s1.76,0,2.77,0c0-1,0-1.89-.1-2.57a12,12,0,0,0-.35-2,20.14,20.14,0,0,0-2.34.13,18.77,18.77,0,0,0-2.38.4c0-.78,0-1.57,0-2.37s-.06-1.59-.1-2.37c.51,0,1.3-.11,2.39-.23l4.1-.42A10.41,10.41,0,0,0,46.13,5,8.75,8.75,0,0,0,46.21,4a10.85,10.85,0,0,0-.08-1.34,6.31,6.31,0,0,0-.2-1.08Z"/>
  <path class="cls-1" d="M61.11,21a20.41,20.41,0,0,0-3.07.25,26,26,0,0,0-3.25.7c-.14-.88-.25-1.94-.32-3.17s-.1-3.13-.1-5.67c0-1.76.05-3.42.14-5s.22-2.81.37-3.74a6.81,6.81,0,0,0-.74-.07l-.72,0a19.18,19.18,0,0,0-2.49.17A20.39,20.39,0,0,0,48.39,5c0,2.84.18,6.4.52,10.68s.75,7.81,1.2,10.6q3.78-.54,6.33-.73c1.69-.14,3.46-.2,5.32-.2a14.9,14.9,0,0,0-.21-2.26A15.21,15.21,0,0,0,61.11,21Z"/>
  <path class="cls-1" d="M69.2,4.25A10.1,10.1,0,0,0,67.86,4a11.09,11.09,0,0,0-1.36-.07,7.12,7.12,0,0,0-1.92.25,5.51,5.51,0,0,0-1.59.7q.51,3.83.76,8.62T64,24.16A20.88,20.88,0,0,0,66.51,24a14.38,14.38,0,0,0,2.15-.39q.28-3,.45-7.12t.17-8q0-1.2,0-2.28c0-.72,0-1.37,0-2Z"/>
  <path class="cls-1" d="M80.84,7.18a1.42,1.42,0,0,1,1.31,1,6.72,6.72,0,0,1,.46,2.8,15.48,15.48,0,0,0,2.7-.19,12.09,12.09,0,0,0,2.55-.84A7,7,0,0,0,86,5.42,5.65,5.65,0,0,0,81.8,3.81a8.68,8.68,0,0,0-7.07,3.51,13.28,13.28,0,0,0-2.81,8.61,8.82,8.82,0,0,0,2,6.15,7,7,0,0,0,5.45,2.16,8.74,8.74,0,0,0,5.8-1.78,6.86,6.86,0,0,0,2.34-5,4.63,4.63,0,0,0-1.84-.66,8.79,8.79,0,0,0-2.43-.13,4.83,4.83,0,0,1-.39,3,2.1,2.1,0,0,1-2,1.06,2.23,2.23,0,0,1-2-1.58,11.41,11.41,0,0,1-.72-4.56,15.42,15.42,0,0,1,.79-5.22c.52-1.44,1.18-2.16,2-2.16Z"/>
  <path class="cls-1" d="M99.82,14.22a24.24,24.24,0,0,0,3-3.4,36.6,36.6,0,0,0,2.75-4.29,11.67,11.67,0,0,0-2.17-2,8.72,8.72,0,0,0-2.35-1.16,51.71,51.71,0,0,1-2.76,5.54,24.14,24.14,0,0,1-2.79,3.84c.07-1.54.19-3.05.36-4.54s.38-2.93.65-4.34a11.73,11.73,0,0,0-1.29-.25,12.48,12.48,0,0,0-1.44-.08,8.38,8.38,0,0,0-2.07.25,5.37,5.37,0,0,0-1.69.7c-.07,1.12-.13,2.22-.17,3.29s0,2.1,0,3.11q0,3.89.32,7.57a67.32,67.32,0,0,0,1,7,22.86,22.86,0,0,0,2.71-.17,13.09,13.09,0,0,0,2.23-.39q-.25-1.84-.39-3.66c-.1-1.21-.15-2.39-.17-3.55a.77.77,0,0,0,.15-.1l.16-.1a35.18,35.18,0,0,1,3.53,4.28,39,39,0,0,1,2.9,5A11.7,11.7,0,0,0,105,25.1a9.65,9.65,0,0,0,2.08-2.23A47.65,47.65,0,0,0,103.63,18a33.51,33.51,0,0,0-3.81-3.82Z"/>
  <path class="cls-1" d="M124.86,1.87a17.07,17.07,0,0,0-2.83.24,22.53,22.53,0,0,0-2.9.69c.17,1.1.3,2.53.4,4.28s.14,3.74.14,6a50.57,50.57,0,0,0-2.37-5,55,55,0,0,0-3-4.79,14.37,14.37,0,0,0-3,.41,11.7,11.7,0,0,0-2.53.91l-.22.11a3,3,0,0,0-.31.2q0,3.48.27,8.49t.8,11.13a19.17,19.17,0,0,0,2.49-.17A12.81,12.81,0,0,0,114,24V14.4c0-.92,0-1.77,0-2.54a49.47,49.47,0,0,1,2.4,4.34q1.16,2.37,3,6.72c.71,0,1.44-.1,2.2-.18s1.72-.22,2.88-.41c.17-2.32.3-4.74.41-7.25s.15-4.93.15-7.23c0-.94,0-1.9,0-2.89s0-2-.11-3.09Z"/>
  <path class="cls-1" d="M142.27,19.19c-.89.17-2.19.36-3.93.57s-2.89.33-3.43.33c-.07-.73-.13-1.5-.17-2.3s-.06-1.63-.08-2.47q1.49-.18,3.06-.27c1.05-.07,2.1-.1,3.17-.1,0-.93,0-1.75-.11-2.44a18.5,18.5,0,0,0-.34-2,21.7,21.7,0,0,0-2.92.19,19.5,19.5,0,0,0-2.86.62c0-1.07,0-1.87.05-2.4s0-1,.09-1.42c1.21-.07,2.39-.13,3.51-.16s2.2-.06,3.25-.06A20.56,20.56,0,0,0,142,4.83a19.15,19.15,0,0,0,.13-2.2,55.58,55.58,0,0,0-6.25.35c-2.12.23-4.63.62-7.51,1.16q.06,4,.63,9.91c.39,4,.81,7.44,1.28,10.42,2,0,4.41-.12,7.34-.34a37,37,0,0,0,5.21-.59,19.88,19.88,0,0,0-.16-2.43,8.59,8.59,0,0,0-.37-1.92Z"/>
  <path class="cls-1" d="M157,11.89q1.72-2.16,2.95-3.82c.83-1.1,1.56-2.16,2.22-3.17A9.76,9.76,0,0,0,160.4,3a9.62,9.62,0,0,0-2.13-1.4c-.53,1-1.09,1.95-1.69,2.94s-1.27,2-2,3.15c-.71-1.14-1.44-2.28-2.19-3.4S150.85,2.08,150,1a15.86,15.86,0,0,0-2.71,1.35,19.56,19.56,0,0,0-2.57,1.88Q146.37,6,147.85,8c1,1.32,2,2.73,3,4.25-.58.79-1.19,1.58-1.83,2.39s-2.26,2.78-4.88,5.95a10.68,10.68,0,0,0,1.35,1.5A10.94,10.94,0,0,0,147,23.32q1.74-1.77,3.21-3.42c1-1.09,2-2.28,3.05-3.57.56,1,1.16,2.12,1.8,3.35s1.49,2.94,2.58,5.15A25.27,25.27,0,0,0,160,23.46a8.81,8.81,0,0,0,1.61-1.32c-.69-1.82-1.42-3.57-2.18-5.27s-1.6-3.35-2.48-5Z"/>
  <path class="cls-1" d="M175.73,13.66a8.41,8.41,0,0,0-1.1-1.26,20.35,20.35,0,0,0-2-1.66,11.73,11.73,0,0,1-2.47-2.27,3.19,3.19,0,0,1-.56-1.77,1.53,1.53,0,0,1,.38-1.08,1.33,1.33,0,0,1,1-.41,1.93,1.93,0,0,1,1.63.76,5.25,5.25,0,0,1,.84,2.5,14.43,14.43,0,0,0,2.73-.41A6.64,6.64,0,0,0,178,7.23a6.74,6.74,0,0,0-2.32-4.11A7.23,7.23,0,0,0,171,1.73a7.69,7.69,0,0,0-5.27,1.77,5.83,5.83,0,0,0-2,4.57,6.91,6.91,0,0,0,.34,2.21,7.42,7.42,0,0,0,1,2,10.78,10.78,0,0,0,1.15,1.26,26.14,26.14,0,0,0,2.07,1.71,12.65,12.65,0,0,1,2.43,2.2,2.71,2.71,0,0,1,.55,1.59,2.06,2.06,0,0,1-.53,1.5,2,2,0,0,1-1.52.55,2.42,2.42,0,0,1-2.17-1.31,6.43,6.43,0,0,1-.81-3.43,8.78,8.78,0,0,0-2.12.32,10.48,10.48,0,0,0-2.17.77,6.45,6.45,0,0,0,2.23,4.9,7.93,7.93,0,0,0,5.57,2.06,7.31,7.31,0,0,0,5.11-1.89A6.18,6.18,0,0,0,177,17.7a7.12,7.12,0,0,0-.31-2.15,6.71,6.71,0,0,0-1-1.89Z"/>
  <path class="cls-1" d="M45.93,1.53q-.87.15-3.18.48l-3.59.51c-1.26.16-2.42.3-3.51.42s-2.17.19-3.26.25q.7,4,1.17,10.68T34,25.67a22.58,22.58,0,0,0,2.73-.14,19.27,19.27,0,0,0,2.47-.45c.09-1.29.16-2.69.22-4.22s.1-3.16.14-4.9c.75-.09,1.54-.16,2.37-.2s1.76,0,2.77,0c0-1,0-1.89-.1-2.57a12,12,0,0,0-.35-2,20.14,20.14,0,0,0-2.34.13,18.77,18.77,0,0,0-2.38.4c0-.78,0-1.57,0-2.37s-.06-1.59-.1-2.37c.51,0,1.3-.11,2.39-.23l4.1-.42A10.41,10.41,0,0,0,46.13,5,8.75,8.75,0,0,0,46.21,4a10.85,10.85,0,0,0-.08-1.34,6.31,6.31,0,0,0-.2-1.08Z"/>
  <path class="cls-1" d="M61.11,21a20.41,20.41,0,0,0-3.07.25,26,26,0,0,0-3.25.7c-.14-.88-.25-1.94-.32-3.17s-.1-3.13-.1-5.67c0-1.76.05-3.42.14-5s.22-2.81.37-3.74a6.81,6.81,0,0,0-.74-.07l-.72,0a19.18,19.18,0,0,0-2.49.17A20.39,20.39,0,0,0,48.39,5c0,2.84.18,6.4.52,10.68s.75,7.81,1.2,10.6q3.78-.54,6.33-.73c1.69-.14,3.46-.2,5.32-.2a14.9,14.9,0,0,0-.21-2.26A15.21,15.21,0,0,0,61.11,21Z"/>
  <path class="cls-1" d="M69.2,4.25A10.1,10.1,0,0,0,67.86,4a11.09,11.09,0,0,0-1.36-.07,7.12,7.12,0,0,0-1.92.25,5.51,5.51,0,0,0-1.59.7q.51,3.83.76,8.62T64,24.16A20.88,20.88,0,0,0,66.51,24a14.38,14.38,0,0,0,2.15-.39q.28-3,.45-7.12t.17-8q0-1.2,0-2.28c0-.72,0-1.37,0-2Z"/>
  <path class="cls-1" d="M80.84,7.18a1.42,1.42,0,0,1,1.31,1,6.72,6.72,0,0,1,.46,2.8,15.48,15.48,0,0,0,2.7-.19,12.09,12.09,0,0,0,2.55-.84A7,7,0,0,0,86,5.42,5.65,5.65,0,0,0,81.8,3.81a8.68,8.68,0,0,0-7.07,3.51,13.28,13.28,0,0,0-2.81,8.61,8.82,8.82,0,0,0,2,6.15,7,7,0,0,0,5.45,2.16,8.74,8.74,0,0,0,5.8-1.78,6.86,6.86,0,0,0,2.34-5,4.63,4.63,0,0,0-1.84-.66,8.79,8.79,0,0,0-2.43-.13,4.83,4.83,0,0,1-.39,3,2.1,2.1,0,0,1-2,1.06,2.23,2.23,0,0,1-2-1.58,11.41,11.41,0,0,1-.72-4.56,15.42,15.42,0,0,1,.79-5.22c.52-1.44,1.18-2.16,2-2.16Z"/>
  <path class="cls-1" d="M99.82,14.22a24.24,24.24,0,0,0,3-3.4,36.6,36.6,0,0,0,2.75-4.29,11.67,11.67,0,0,0-2.17-2,8.72,8.72,0,0,0-2.35-1.16,51.71,51.71,0,0,1-2.76,5.54,24.14,24.14,0,0,1-2.79,3.84c.07-1.54.19-3.05.36-4.54s.38-2.93.65-4.34a11.73,11.73,0,0,0-1.29-.25,12.48,12.48,0,0,0-1.44-.08,8.38,8.38,0,0,0-2.07.25,5.37,5.37,0,0,0-1.69.7c-.07,1.12-.13,2.22-.17,3.29s0,2.1,0,3.11q0,3.89.32,7.57a67.32,67.32,0,0,0,1,7,22.86,22.86,0,0,0,2.71-.17,13.09,13.09,0,0,0,2.23-.39q-.25-1.84-.39-3.66c-.1-1.21-.15-2.39-.17-3.55a.77.77,0,0,0,.15-.1l.16-.1a35.18,35.18,0,0,1,3.53,4.28,39,39,0,0,1,2.9,5A11.7,11.7,0,0,0,105,25.1a9.65,9.65,0,0,0,2.08-2.23A47.65,47.65,0,0,0,103.63,18a33.51,33.51,0,0,0-3.81-3.82Z"/>
  <path class="cls-1" d="M124.86,1.87a17.07,17.07,0,0,0-2.83.24,22.53,22.53,0,0,0-2.9.69c.17,1.1.3,2.53.4,4.28s.14,3.74.14,6a50.57,50.57,0,0,0-2.37-5,55,55,0,0,0-3-4.79,14.37,14.37,0,0,0-3,.41,11.7,11.7,0,0,0-2.53.91l-.22.11a3,3,0,0,0-.31.2q0,3.48.27,8.49t.8,11.13a19.17,19.17,0,0,0,2.49-.17A12.81,12.81,0,0,0,114,24V14.4c0-.92,0-1.77,0-2.54a49.47,49.47,0,0,1,2.4,4.34q1.16,2.37,3,6.72c.71,0,1.44-.1,2.2-.18s1.72-.22,2.88-.41c.17-2.32.3-4.74.41-7.25s.15-4.93.15-7.23c0-.94,0-1.9,0-2.89s0-2-.11-3.09Z"/>
  <path class="cls-1" d="M142.27,19.19c-.89.17-2.19.36-3.93.57s-2.89.33-3.43.33c-.07-.73-.13-1.5-.17-2.3s-.06-1.63-.08-2.47q1.49-.18,3.06-.27c1.05-.07,2.1-.1,3.17-.1,0-.93,0-1.75-.11-2.44a18.5,18.5,0,0,0-.34-2,21.7,21.7,0,0,0-2.92.19,19.5,19.5,0,0,0-2.86.62c0-1.07,0-1.87.05-2.4s0-1,.09-1.42c1.21-.07,2.39-.13,3.51-.16s2.2-.06,3.25-.06A20.56,20.56,0,0,0,142,4.83a19.15,19.15,0,0,0,.13-2.2,55.58,55.58,0,0,0-6.25.35c-2.12.23-4.63.62-7.51,1.16q.06,4,.63,9.91c.39,4,.81,7.44,1.28,10.42,2,0,4.41-.12,7.34-.34a37,37,0,0,0,5.21-.59,19.88,19.88,0,0,0-.16-2.43,8.59,8.59,0,0,0-.37-1.92Z"/>
  <path class="cls-1" d="M157,11.89q1.72-2.16,2.95-3.82c.83-1.1,1.56-2.16,2.22-3.17A9.76,9.76,0,0,0,160.4,3a9.62,9.62,0,0,0-2.13-1.4c-.53,1-1.09,1.95-1.69,2.94s-1.27,2-2,3.15c-.71-1.14-1.44-2.28-2.19-3.4S150.85,2.08,150,1a15.86,15.86,0,0,0-2.71,1.35,19.56,19.56,0,0,0-2.57,1.88Q146.37,6,147.85,8c1,1.32,2,2.73,3,4.25-.58.79-1.19,1.58-1.83,2.39s-2.26,2.78-4.88,5.95a10.68,10.68,0,0,0,1.35,1.5A10.94,10.94,0,0,0,147,23.32q1.74-1.77,3.21-3.42c1-1.09,2-2.28,3.05-3.57.56,1,1.16,2.12,1.8,3.35s1.49,2.94,2.58,5.15A25.27,25.27,0,0,0,160,23.46a8.81,8.81,0,0,0,1.61-1.32c-.69-1.82-1.42-3.57-2.18-5.27s-1.6-3.35-2.48-5Z"/>
  <path class="cls-1" d="M175.73,13.66a8.41,8.41,0,0,0-1.1-1.26,20.35,20.35,0,0,0-2-1.66,11.73,11.73,0,0,1-2.47-2.27,3.19,3.19,0,0,1-.56-1.77,1.53,1.53,0,0,1,.38-1.08,1.33,1.33,0,0,1,1-.41,1.93,1.93,0,0,1,1.63.76,5.25,5.25,0,0,1,.84,2.5,14.43,14.43,0,0,0,2.73-.41A6.64,6.64,0,0,0,178,7.23a6.74,6.74,0,0,0-2.32-4.11A7.23,7.23,0,0,0,171,1.73a7.69,7.69,0,0,0-5.27,1.77,5.83,5.83,0,0,0-2,4.57,6.91,6.91,0,0,0,.34,2.21,7.42,7.42,0,0,0,1,2,10.78,10.78,0,0,0,1.15,1.26,26.14,26.14,0,0,0,2.07,1.71,12.65,12.65,0,0,1,2.43,2.2,2.71,2.71,0,0,1,.55,1.59,2.06,2.06,0,0,1-.53,1.5,2,2,0,0,1-1.52.55,2.42,2.42,0,0,1-2.17-1.31,6.43,6.43,0,0,1-.81-3.43,8.78,8.78,0,0,0-2.12.32,10.48,10.48,0,0,0-2.17.77,6.45,6.45,0,0,0,2.23,4.9,7.93,7.93,0,0,0,5.57,2.06,7.31,7.31,0,0,0,5.11-1.89A6.18,6.18,0,0,0,177,17.7a7.12,7.12,0,0,0-.31-2.15,6.71,6.71,0,0,0-1-1.89Z"/>
  <path class="cls-1" d="M45.91,1.55,42.74,2c-1.54.23-2.73.4-3.6.51-1.25.17-2.42.31-3.5.42s-2.18.19-3.26.25a105.65,105.65,0,0,1,1.16,10.68Q34,20.55,34,25.69a24.5,24.5,0,0,0,2.72-.14,19,19,0,0,0,2.47-.45c.09-1.29.17-2.7.22-4.23s.11-3.15.14-4.89c.75-.1,1.54-.16,2.38-.2s1.75-.06,2.76-.06c0-1,0-1.88-.09-2.56a11.94,11.94,0,0,0-.36-2,20.39,20.39,0,0,0-2.34.13,18.39,18.39,0,0,0-2.37.41c0-.79,0-1.58,0-2.38S39.43,7.78,39.4,7c.5,0,1.3-.11,2.38-.22l4.1-.42a12.91,12.91,0,0,0,.24-1.29A8.78,8.78,0,0,0,46.19,4a10.8,10.8,0,0,0-.07-1.33,6.9,6.9,0,0,0-.21-1.08Z"/>
  <path class="cls-1" d="M61.1,21a20.54,20.54,0,0,0-3.08.25,26.25,26.25,0,0,0-3.24.71,27,27,0,0,1-.32-3.18c-.07-1.23-.1-3.12-.1-5.67,0-1.76,0-3.42.14-5s.22-2.81.37-3.75a7,7,0,0,0-.75-.07h-.71a17.37,17.37,0,0,0-2.49.17,21.89,21.89,0,0,0-2.54.5q0,4.28.52,10.68c.35,4.28.74,7.81,1.19,10.6q3.79-.54,6.33-.73c1.7-.13,3.47-.2,5.32-.2a15,15,0,0,0-.21-2.26A16.21,16.21,0,0,0,61.1,21Z"/>
  <path class="cls-1" d="M69.18,4.27A9.81,9.81,0,0,0,67.85,4c-.4,0-.86-.07-1.36-.07a7.07,7.07,0,0,0-1.92.26,5.25,5.25,0,0,0-1.59.7c.34,2.54.59,5.42.76,8.61S64,20.26,64,24.17A20.88,20.88,0,0,0,66.5,24a15.56,15.56,0,0,0,2.15-.4q.28-2.94.45-7.12c.11-2.77.17-5.44.17-8,0-.81,0-1.57,0-2.29s0-1.37-.06-1.95Z"/>
  <path class="cls-1" d="M80.83,7.19a1.44,1.44,0,0,1,1.31,1A6.78,6.78,0,0,1,82.6,11a15.36,15.36,0,0,0,2.7-.2,12.09,12.09,0,0,0,2.55-.84A7,7,0,0,0,86,5.43a5.69,5.69,0,0,0-4.21-1.61,8.71,8.71,0,0,0-7.08,3.51A13.36,13.36,0,0,0,71.91,16a8.84,8.84,0,0,0,2,6.15,7,7,0,0,0,5.45,2.16,8.75,8.75,0,0,0,5.8-1.79,6.83,6.83,0,0,0,2.34-5,4.57,4.57,0,0,0-1.84-.66,8.41,8.41,0,0,0-2.43-.12,4.81,4.81,0,0,1-.39,3,2.11,2.11,0,0,1-2,1.07,2.24,2.24,0,0,1-2-1.58,11.43,11.43,0,0,1-.72-4.57,15.17,15.17,0,0,1,.79-5.22c.52-1.44,1.18-2.16,2-2.16Z"/>
  <path class="cls-1" d="M99.81,14.23a24.73,24.73,0,0,0,3-3.39,39.05,39.05,0,0,0,2.76-4.3,11.31,11.31,0,0,0-2.18-2,8.55,8.55,0,0,0-2.34-1.17,52.76,52.76,0,0,1-2.77,5.55,24,24,0,0,1-2.79,3.83c.07-1.53.19-3.05.36-4.53s.39-2.94.65-4.34a11.79,11.79,0,0,0-1.29-.26,12.43,12.43,0,0,0-1.43-.08,8.4,8.4,0,0,0-2.08.25A5.38,5.38,0,0,0,90,4.47c-.07,1.12-.13,2.21-.17,3.28s-.05,2.11-.05,3.12q0,3.87.32,7.56a67.52,67.52,0,0,0,1,7,25.2,25.2,0,0,0,2.71-.17,13.09,13.09,0,0,0,2.23-.39c-.17-1.24-.3-2.46-.39-3.67s-.15-2.39-.17-3.55l.15-.1a1,1,0,0,1,.16-.09,36.26,36.26,0,0,1,3.54,4.28,40.27,40.27,0,0,1,2.89,5,12.06,12.06,0,0,0,2.8-1.59,9.45,9.45,0,0,0,2.08-2.23,47.65,47.65,0,0,0-3.49-4.83,33.5,33.5,0,0,0-3.81-3.82Z"/>
  <path class="cls-1" d="M124.86,1.88a17.19,17.19,0,0,0-2.84.24,22,22,0,0,0-2.89.69c.17,1.1.3,2.53.39,4.28s.14,3.75.14,6a52.8,52.8,0,0,0-2.37-5,53.23,53.23,0,0,0-3-4.78,14.56,14.56,0,0,0-3,.4,11.7,11.7,0,0,0-2.53.92l-.22.11a2.62,2.62,0,0,0-.31.19q0,3.5.27,8.5c.18,3.34.44,7.05.8,11.13a21.27,21.27,0,0,0,2.5-.17A12.65,12.65,0,0,0,114,24V14.42c0-.93,0-1.78,0-2.54a49.23,49.23,0,0,1,2.4,4.33q1.17,2.38,3,6.73c.71,0,1.45-.1,2.21-.18s1.71-.22,2.87-.41q.25-3.48.41-7.26c.1-2.52.16-4.92.16-7.23,0-.93,0-1.9,0-2.89s-.06-2-.11-3.09Z"/>
  <path class="cls-1" d="M142.26,19.2c-.88.17-2.19.37-3.93.58a34.11,34.11,0,0,1-3.42.32c-.08-.73-.13-1.49-.17-2.3s-.07-1.63-.09-2.47q1.5-.16,3.06-.27c1-.06,2.11-.1,3.18-.1a21.6,21.6,0,0,0-.12-2.44,16.68,16.68,0,0,0-.33-2,21.59,21.59,0,0,0-2.92.2,19.63,19.63,0,0,0-2.87.62q0-1.61.06-2.4c0-.54,0-1,.08-1.42,1.22-.08,2.39-.13,3.51-.17s2.21-.06,3.26-.06A22.85,22.85,0,0,0,142,4.84a21.42,21.42,0,0,0,.12-2.2,57.86,57.86,0,0,0-6.24.35c-2.13.24-4.63.62-7.51,1.17q0,4,.63,9.91t1.28,10.41q2.94,0,7.34-.33a40.39,40.39,0,0,0,5.2-.59,21.92,21.92,0,0,0-.15-2.43,8.71,8.71,0,0,0-.38-1.93Z"/>
  <path class="cls-1" d="M157,11.91c1.14-1.45,2.13-2.72,2.95-3.82s1.56-2.16,2.22-3.18a10.48,10.48,0,0,0-3.88-3.28c-.52,1-1.08,2-1.68,3s-1.27,2-2,3.14Q153.5,6,152.37,4.33C151.62,3.2,150.84,2.09,150,1a15.51,15.51,0,0,0-2.71,1.35,18.92,18.92,0,0,0-2.57,1.88Q146.37,6,147.85,8t3,4.25c-.59.79-1.19,1.59-1.83,2.39s-2.26,2.79-4.88,6a9.94,9.94,0,0,0,1.34,1.5A10.32,10.32,0,0,0,147,23.33c1.16-1.18,2.23-2.31,3.21-3.41s2-2.29,3.05-3.58c.56,1,1.16,2.13,1.79,3.36s1.5,2.94,2.59,5.15A23.23,23.23,0,0,0,160,23.47a8.81,8.81,0,0,0,1.61-1.32c-.69-1.81-1.42-3.57-2.19-5.26s-1.59-3.36-2.47-5Z"/>
  <path class="cls-1" d="M175.73,13.67a8.41,8.41,0,0,0-1.1-1.26,23.63,23.63,0,0,0-2-1.66,11.47,11.47,0,0,1-2.47-2.27,3.17,3.17,0,0,1-.56-1.77,1.53,1.53,0,0,1,.38-1.08,1.33,1.33,0,0,1,1-.41,2,2,0,0,1,1.63.76,5.41,5.41,0,0,1,.84,2.5,13.66,13.66,0,0,0,2.73-.41A6.37,6.37,0,0,0,178,7.24a6.77,6.77,0,0,0-2.32-4.11A7.3,7.3,0,0,0,171,1.74a7.69,7.69,0,0,0-5.27,1.77,5.82,5.82,0,0,0-2,4.58,7.14,7.14,0,0,0,.33,2.2,8.06,8.06,0,0,0,1,2,12.9,12.9,0,0,0,1.15,1.26c.45.43,1.15,1,2.08,1.72a12,12,0,0,1,2.43,2.2,2.67,2.67,0,0,1,.55,1.59,2.1,2.1,0,0,1-.53,1.5,2.06,2.06,0,0,1-1.52.54,2.45,2.45,0,0,1-2.18-1.3,6.56,6.56,0,0,1-.8-3.44,9.24,9.24,0,0,0-2.12.32,11.07,11.07,0,0,0-2.17.78,6.42,6.42,0,0,0,2.23,4.89,7.87,7.87,0,0,0,5.57,2.07,7.27,7.27,0,0,0,5.11-1.9A6.18,6.18,0,0,0,177,17.72a7.07,7.07,0,0,0-.31-2.15,6.64,6.64,0,0,0-1-1.9Z"/>
  <path class="cls-2" d="M24.28,12a1.43,1.43,0,0,1,.44,2.44l-8.11,6.84-8.1,6.85a1.43,1.43,0,0,1-2.33-.85L4.3,16.84,2.43,6.4A1.43,1.43,0,0,1,4.32,4.8l10,3.59Z"/>
  <path class="cls-1" d="M29.4,13.7a1.62,1.62,0,0,1,0,2.81L19,22.5l-10.39,6a1.62,1.62,0,0,1-2.43-1.4v-24a1.62,1.62,0,0,1,2.43-1.4L19,7.7Z"/>
  <path class="cls-3" d="M17.5,8.84l-2.33.74c-1.12.36-2,.63-2.63.82-.92.28-1.78.52-2.58.74s-1.61.41-2.41.59C8.22,13.68,9,16.3,9.72,19.6s1.37,6.23,1.79,8.8a18.88,18.88,0,0,0,2-.44,14.36,14.36,0,0,0,1.8-.64c-.08-1-.2-2-.34-3.2s-.31-2.38-.5-3.69c.55-.16,1.14-.3,1.76-.43s1.31-.26,2.07-.38q-.2-1.15-.39-1.92a8.8,8.8,0,0,0-.5-1.42,16.83,16.83,0,0,0-1.74.38,14.8,14.8,0,0,0-1.73.6c-.1-.59-.2-1.18-.32-1.78s-.24-1.18-.37-1.76L15,13.26l3-.82a8.59,8.59,0,0,0,0-1,6.88,6.88,0,0,0-.08-.83q-.09-.54-.21-1a6.18,6.18,0,0,0-.29-.78Z"/>
</svg>